<svg width="128px" height="37px" viewBox="0 0 128 37" version="1.1" xmlns="http://www.w3.org/2000/svg" xmlnsXlink="http://www.w3.org/1999/xlink" xmlnssketch="http://www.bohemiancoding.com/sketch/ns">
					<g id="Page-1" stroke="none" stroke-width="1" fill="none" fill-rule="evenodd" sketchtype="MSPage">
						<g sketchtype="MSLayerGroup" transform="translate(0.000000, -3.000000)">
							<path d="M123.9,35.85 C120.35,37.95 101.9,37.9 97.2,37.45 C89.8,36.7 76.25,29.85 68.85,29.1 C59.7,28.15 44.6,29.05 35.45,28.15 C29.35,27.55 11.3,26.3 7.3,22.7 C4.85,20.45 5.3,13.1 8.4,11.65 C13.3,9.35 30.75,14.75 36.7,15.35 C45.95,16.3 60.95,14.75 70.2,15.65 C77.45,16.35 91.5,21.3 98.75,22 C103.65,22.5 120.9,20.2 124.5,22.85 C127.25,24.9 126.8,34.15 123.9,35.85 L123.9,35.85 Z"
								  id="Shape" fill="#894647" sketchtype="MSShapeGroup"></path>
							<path d="M124.25,32.35 C120.7,34.45 102.25,34.4 97.55,33.95 C90.15,33.2 76.55,26.35 69.2,25.6 C60.05,24.7 44.95,25.6 35.8,24.65 C29.7,24.05 11.65,22.8 7.65,19.2 C5.2,17 5.65,9.6 8.75,8.15 C13.65,5.85 31.1,11.25 37.05,11.9 C46.3,12.85 61.3,11.25 70.55,12.2 C77.8,12.9 91.85,17.85 99.1,18.55 C104,19.05 121.25,16.75 124.85,19.4 C127.6,21.45 127.15,30.65 124.25,32.35 L124.25,32.35 Z"
								  id="Shape" fill="#AA7272" sketchtype="MSShapeGroup"></path>
							<path d="M124.55,29.55 C121,31.65 102.55,31.65 97.85,31.15 C90.45,30.4 76.9,23.55 69.5,22.8 C60.35,21.9 45.25,22.75 36.1,21.85 C30,21.25 11.95,20 7.95,16.4 C5.5,14.2 5.95,6.8 9.05,5.35 C13.95,3.05 31.4,8.45 37.35,9.05 C46.6,10 61.6,8.4 70.85,9.35 C78.1,10.1 92.15,15 99.4,15.7 C104.3,16.2 121.55,13.9 125.15,16.6 C127.9,18.65 127.4,27.85 124.55,29.55 L124.55,29.55 Z"
								  id="Shape" fill="#894647" sketchtype="MSShapeGroup"></path>
							<path d="M124.8,27.1 C121.3,28.8 102.85,28.5 98.15,28 C90.75,27.25 77.1,21.3 69.7,20.55 C60.55,19.65 45.5,20.1 36.35,19.2 C30.25,18.6 12.2,17.25 8.15,14.2 C5.65,12.3 6,6.15 9.1,4.95 C13.95,3.15 31.5,7.95 37.45,8.55 C46.7,9.5 61.65,8.45 70.9,9.35 C78.15,10.1 92.3,14.45 99.5,15.15 C104.4,15.65 121.6,14 125.2,16.3 C127.95,18 127.65,25.75 124.8,27.1 L124.8,27.1 Z"
								  id="Shape" fill="#AA7272" sketchtype="MSShapeGroup"></path>
							<path d="M121.35,22.9 C118.4,25.8 100.55,30.35 95.85,31.05 C88.5,32.15 73.65,28.85 66.3,29.95 C57.2,31.3 42.8,35.9 33.7,37.25 C27.65,38.15 9.85,41.4 5.1,38.9 C2.15,37.35 0.8,30.1 3.45,27.9 C7.65,24.45 25.9,25.4 31.8,24.5 C41,23.15 55.15,17.9 64.3,16.55 C71.5,15.45 86.35,16.75 93.55,15.7 C98.45,14.95 114.6,8.5 118.7,10.2 C121.9,11.5 123.7,20.6 121.35,22.9 L121.35,22.9 Z"
								  id="Shape" fill="#894647" sketchtype="MSShapeGroup"></path>
							<path d="M120.8,19.5 C117.85,22.4 100,26.95 95.3,27.65 C87.95,28.75 73.1,25.45 65.75,26.55 C56.65,27.9 42.25,32.5 33.15,33.85 C27.1,34.75 9.3,38 4.55,35.5 C1.6,33.95 0.25,26.65 2.9,24.5 C7.1,21.1 25.35,22 31.25,21.15 C40.45,19.75 54.6,14.55 63.8,13.15 C71,12.05 85.85,13.35 93.05,12.3 C97.95,11.55 114.1,5.1 118.2,6.8 C121.35,8.05 123.15,17.1 120.8,19.5 L120.8,19.5 Z"
								  id="Shape" fill="#AA7272" sketchtype="MSShapeGroup"></path>
							<path d="M120.4,16.65 C117.45,19.55 99.6,24.1 94.9,24.8 C87.55,25.9 72.7,22.6 65.35,23.7 C56.25,25.05 41.85,29.65 32.75,31.05 C26.7,31.95 8.9,35.2 4.15,32.7 C1.2,31.15 -0.15,23.9 2.5,21.75 C6.7,18.35 24.95,19.25 30.85,18.35 C40,16.95 54.2,11.75 63.35,10.4 C70.55,9.3 85.4,10.6 92.6,9.55 C97.5,8.8 113.65,2.35 117.8,4.05 C120.95,5.25 122.75,14.35 120.4,16.65 L120.4,16.65 Z"
								  id="Shape" fill="#894647" sketchtype="MSShapeGroup"></path>
							<path d="M120,14.25 C117,16.8 99.05,21 94.4,21.7 C87.05,22.8 72.35,20.4 65,21.5 C55.9,22.85 41.45,27.05 32.35,28.45 C26.3,29.35 8.45,32.55 3.8,30.55 C0.9,29.3 -0.25,23.25 2.4,21.35 C6.65,18.4 24.85,18.75 30.75,17.85 C39.9,16.45 54.15,11.75 63.35,10.4 C70.55,9.35 85.3,10.05 92.5,8.95 C97.4,8.2 113.65,2.4 117.7,3.7 C120.85,4.65 122.45,12.2 120,14.25 L120,14.25 Z"
								  id="Shape" fill="#AA7272" sketchtype="MSShapeGroup"></path>
						</g>
					</g>
				</svg>