<svg class="svg" width="139px" height="58px" viewBox="0 0 139 58" version="1.1" xmlns="http://www.w3.org/2000/svg" xmlnsXlink="http://www.w3.org/1999/xlink" xmlnssketch="http://www.bohemiancoding.com/sketch/ns">
					<g id="Page-1" stroke="none" stroke-width="1" fill="none" fill-rule="evenodd" sketchtype="MSPage">
						<g sketchtype="MSLayerGroup" transform="translate(-1.000000, 0.000000)">
							<path d="M134.4,53.6 C110.85,59.25 20.55,56.95 6.55,53.6 C-2.25,51.5 2.95,23.45 8.95,17.45 C31.55,-5.15 114.3,-5.25 134.35,19.6 C139.75,26.2 142.7,51.65 134.4,53.6 L134.4,53.6 Z" id="Shape" fill="#F49B2F" sketchtype="MSShapeGroup"></path>
							<ellipse id="Oval" fill="#F4D658" sketchtype="MSShapeGroup" transform="translate(24.002450, 9.498350) rotate(-11.204304) translate(-24.002450, -9.498350) " cx="24.00245" cy="9.49835" rx="3.04987388" ry="1.74992764"></ellipse>
							<ellipse id="Oval" fill="#F4D658" sketchtype="MSShapeGroup" transform="translate(36.046100, 5.847250) rotate(-11.204304) translate(-36.046100, -5.847250) " cx="36.0461" cy="5.84725" rx="3.04987388" ry="1.74992764"></ellipse>
							<ellipse id="Oval" fill="#F4D658" sketchtype="MSShapeGroup" transform="translate(53.050595, 9.495435) rotate(-11.204304) translate(-53.050595, -9.495435) " cx="53.050595" cy="9.495435" rx="3.04987388" ry="1.74992764"></ellipse>
							<ellipse id="Oval" fill="#F4D658" sketchtype="MSShapeGroup" transform="translate(63.294125, 5.839575) rotate(-11.204304) translate(-63.294125, -5.839575) " cx="63.294125" cy="5.839575" rx="3.04987388" ry="1.74992764"></ellipse>
							<ellipse id="Oval" fill="#F4D658" sketchtype="MSShapeGroup" transform="translate(70.702830, 9.498910) rotate(-0.870916) translate(-70.702830, -9.498910) " cx="70.70283" cy="9.49891" rx="3.05004735" ry="1.75002717"></ellipse>
							<ellipse id="Oval" fill="#F4D658" sketchtype="MSShapeGroup" transform="translate(75.257400, 2.500250) rotate(11.011040) translate(-75.257400, -2.500250) " cx="75.2574" cy="2.50025" rx="3.05002983" ry="1.75001711"></ellipse>
							<ellipse id="Oval" fill="#F4D658" sketchtype="MSShapeGroup" transform="translate(54.792070, 2.499110) rotate(-11.204304) translate(-54.792070, -2.499110) " cx="54.79207" cy="2.49911" rx="3.04987388" ry="1.74992764"></ellipse>
							<ellipse id="Oval" fill="#F4D658" sketchtype="MSShapeGroup" transform="translate(84.294520, 11.298340) rotate(12.280840) translate(-84.294520, -11.298340) " cx="84.29452" cy="11.29834" rx="3.04994769" ry="1.74996999"></ellipse>
							<ellipse id="Oval" fill="#F4D658" sketchtype="MSShapeGroup" transform="translate(87.304270, 2.498950) rotate(-0.916746) translate(-87.304270, -2.498950) " cx="87.30427" cy="2.49895" rx="3.05008541" ry="1.75004901"></ellipse>
							<ellipse id="Oval" fill="#F4D658" sketchtype="MSShapeGroup" transform="translate(69.293440, 14.895420) rotate(-11.204304) translate(-69.293440, -14.895420) " cx="69.29344" cy="14.89542" rx="3.04987388" ry="1.74992764"></ellipse>
							<ellipse id="Oval" fill="#F4D658" sketchtype="MSShapeGroup" transform="translate(50.041855, 16.692815) rotate(-11.204304) translate(-50.041855, -16.692815) " cx="50.041855" cy="16.692815" rx="3.04987388" ry="1.74992764"></ellipse>
							<ellipse id="Oval" fill="#F4D658" sketchtype="MSShapeGroup" transform="translate(30.042855, 16.694815) rotate(-11.204304) translate(-30.042855, -16.694815) " cx="30.042855" cy="16.694815" rx="3.04987388" ry="1.74992764"></ellipse>
							<ellipse id="Oval" fill="#F4D658" sketchtype="MSShapeGroup" transform="translate(42.098060, 13.096580) rotate(-33.257823) translate(-42.098060, -13.096580) " cx="42.09806" cy="13.09658" rx="3.04995882" ry="1.74997637"></ellipse>
							<ellipse id="Oval" fill="#F4D658" sketchtype="MSShapeGroup" transform="translate(93.359340, 16.700005) rotate(8.041784) translate(-93.359340, -16.700005) " cx="93.35934" cy="16.700005" rx="3.05010377" ry="1.75005954"></ellipse>
							<ellipse id="Oval" fill="#F4D658" sketchtype="MSShapeGroup" transform="translate(100.650780, 4.054410) rotate(13.126025) translate(-100.650780, -4.054410) " cx="100.65078" cy="4.05441" rx="3.05008482" ry="1.75004867"></ellipse>
							<ellipse id="Oval" fill="#F4D658" sketchtype="MSShapeGroup" transform="translate(103.653455, 13.101835) rotate(-8.551447) translate(-103.653455, -13.101835) " cx="103.653455" cy="13.101835" rx="3.05005322" ry="1.75003054"></ellipse>
							<ellipse id="Oval" fill="#F4D658" sketchtype="MSShapeGroup" transform="translate(114.707825, 7.637975) rotate(19.591001) translate(-114.707825, -7.637975) " cx="114.707825" cy="7.637975" rx="3.04996721" ry="1.74998119"></ellipse>
						</g>
					</g>
				</svg>