<svg width="151px" height="44px" viewBox="0 0 151 44" version="1.1" xmlns="http://www.w3.org/2000/svg" xmlnsXlink="http://www.w3.org/1999/xlink" xmlnssketch="http://www.bohemiancoding.com/sketch/ns">
					<g id="Page-1" stroke="none" stroke-width="1" fill="none" fill-rule="evenodd" sketchtype="MSPage">
						<g sketchtype="MSLayerGroup" transform="translate(-1.000000, 0.000000)">
							<path d="M146.85,21 C130.85,22.15 99.5,27.8 48.1,43.4 C36.75,46.85 -5.5,21.1 3.1,14.25 C24.5,-2.85 103.1,6.3 103.1,6.3 C103.1,6.3 170.35,19.35 146.85,21 L146.85,21 Z" id="Shape" fill="#FDD181" sketchtype="MSShapeGroup"></path>
							<path d="M147.6,20.35 C131.5,20.35 99.5,24.6 48.1,40.2 C36.75,43.65 -0.8,19.25 3.35,13.75 C19.85,-8.05 103.1,3.05 103.1,3.05 C103.1,3.05 169.2,20.35 147.6,20.35 L147.6,20.35 Z" id="Shape" fill="#FDC64B" sketchtype="MSShapeGroup"></path>
						</g>
					</g>
				</svg>