<svg width="162px" className='ing' height="37px" viewBox="0 0 162 37" version="1.1" xmlns="http://www.w3.org/2000/svg" xmlnsXlink="http://www.w3.org/1999/xlink" xmlnssketch="http://www.bohemiancoding.com/sketch/ns">
					<g id="Page-1" stroke="none" stroke-width="1" fill="none" fill-rule="evenodd" sketchtype="MSPage">
						<g sketchtype="MSLayerGroup">
							<path d="M142.3,27.3 L109.9,35.4 L50.1,28.35 L43.2,36.65 L9.4,32.9 L9.4,19.15 L18.8,14.15 L117.8,16.2 L125.85,22.6 L142.3,27.3 Z" id="Shape" fill="#518735" sketchtype="MSShapeGroup"></path>
							<path d="M161.2,28.2 L143,30.7 L96.25,23.7 L34,31.95 L0.25,28.2 L0.25,14.45 L16.15,9.45 L157.4,11.5 L158.95,17.9 L161.2,28.2 Z" id="Shape" fill="#56A234" sketchtype="MSShapeGroup"></path>
							<path d="M161.2,19.45 L143,21.95 L96.25,14.95 L34,23.2 L0.25,19.45 L0.25,5.7 L16.15,0.7 L157.4,2.75 L158.95,9.15 L161.2,19.45 Z" id="Shape" fill="#7CBB52" sketchtype="MSShapeGroup"></path>
						</g>
					</g>
				</svg>