<svg width="139px" height="46px" viewBox="0 0 139 46" version="1.1" xmlns="http://www.w3.org/2000/svg" xmlnsXlink="http://www.w3.org/1999/xlink" xmlnssketch="http://www.bohemiancoding.com/sketch/ns">
					<g id="Page-1" stroke="none" stroke-width="1" fill="none" fill-rule="evenodd" sketchtype="MSPage">
						<g sketchtype="MSLayerGroup" transform="translate(-2.000000, -3.000000)">
							<path d="M140.25,27.2 C140.45,36.65 132.95,44.4 123.5,44.6 C123.5,44.6 101,48.15 73.2,48.65 C44.75,49.2 20,46.55 20,46.55 C10.55,46.75 2.8,39.25 2.6,29.8 L2.6,29.8 C2.4,20.35 2.65,12.7 12.05,12.55 C12.05,12.55 31.95,18.45 71.2,17.7 C113.65,16.9 130.3,10.35 130.3,10.35 C139.75,10.15 140.1,17.8 140.25,27.2 L140.25,27.2 L140.25,27.2 Z"
								  id="Shape" fill="#6D4B33" sketchtype="MSShapeGroup"></path>
							<ellipse id="Oval" fill="#774C32" sketchtype="MSShapeGroup" transform="translate(71.150860, 13.093145) rotate(-1.082978) translate(-71.150860, -13.093145) " cx="71.15086" cy="13.093145" rx="65.0986085" ry="9.99978625"></ellipse>
						</g>
					</g>
				</svg>