<?xml version="1.0" standalone="no"?>
<!DOCTYPE svg PUBLIC "-//W3C//DTD SVG 20010904//EN"
 "http://www.w3.org/TR/2001/REC-SVG-20010904/DTD/svg10.dtd">
<svg version="1.0" xmlns="http://www.w3.org/2000/svg"
 width="400.000000pt" height="400.000000pt" viewBox="0 0 400.000000 400.000000"
 preserveAspectRatio="xMidYMid meet">
<metadata>
Created by potrace 1.11, written by Peter Selinger 2001-2013
</metadata>
<g transform="translate(0.000000,400.000000) scale(0.100000,-0.100000)"
fill="#000000" stroke="none">
<path d="M1698 3275 c-2 -2 -59 -6 -128 -9 -69 -3 -150 -8 -180 -11 -155 -13
-253 -23 -300 -30 -19 -3 -53 -8 -75 -11 -278 -33 -608 -127 -714 -205 -75
-53 -76 -58 -77 -286 l-1 -203 36 0 c291 -4 3503 0 3510 4 5 4 9 86 8 202 -1
224 -3 232 -90 291 -90 61 -348 144 -522 168 -22 3 -47 8 -55 10 -28 8 -94 17
-360 49 -19 3 -78 8 -130 11 -52 4 -111 9 -130 11 -40 5 -787 14 -792 9z"/>
<path d="M180 2412 c-40 -20 -70 -71 -70 -121 0 -43 42 -106 78 -119 35 -12
3600 -9 3627 3 99 44 99 199 0 241 -29 12 -288 14 -1817 14 -1677 0 -1785 -1
-1818 -18z"/>
<path d="M244 2072 c-20 -3 -22 -9 -22 -58 l1 -54 166 0 c197 0 3251 0 3332 0
l56 0 1 55 c0 49 -2 55 -21 56 -63 3 -3495 4 -3513 1z"/>
<path d="M32 1850 c-50 -47 -31 -134 32 -145 17 -3 898 -4 1958 -3 l1928 3 26
27 c23 22 26 31 20 62 -4 20 -17 45 -28 56 -22 20 -37 20 -1968 20 -1941 0
-1946 0 -1968 -20z"/>
<path d="M269 1595 c-35 -19 -41 -36 -45 -128 -3 -91 5 -119 42 -144 26 -17
112 -18 1732 -18 1606 0 1707 1 1734 18 38 23 46 48 46 137 -1 83 -16 121 -55
139 -17 8 -523 11 -1726 11 -1456 -1 -1706 -3 -1728 -15z"/>
<path d="M225 1210 c-2 -3 -3 -85 -2 -182 l2 -177 30 -43 c17 -24 48 -52 70
-63 39 -20 62 -20 1665 -22 1119 -2 1635 1 1658 8 44 14 89 54 111 98 15 31
18 61 17 211 l-1 175 -1773 0 c-976 0 -1775 -2 -1777 -5z"/>
</g>
</svg>
